<svg height="512" viewBox="0 0 64 64" width="512" xmlns="http://www.w3.org/2000/svg"><g id="Setting"><path d="m54.44 37a23.2 23.2 0 0 1 -3.03 7.34l4.63 4.63-7.07 7.07-4.63-4.63a22.875 22.875 0 0 1 -7.34 3.05v6.54h-10v-6.56a23.2 23.2 0 0 1 -7.34-3.03l-4.63 4.63-7.07-7.07 4.63-4.63a22.875 22.875 0 0 1 -3.05-7.34h-6.54v-10h6.55a22.855 22.855 0 0 1 3.04-7.34l-4.63-4.63 7.07-7.07 4.63 4.63a22.743 22.743 0 0 1 7.34-3.03v-6.56h10v6.56a22.743 22.743 0 0 1 7.34 3.03l4.63-4.63 7.07 7.07-4.63 4.63a22.743 22.743 0 0 1 3.03 7.34h6.56v10z" fill="#ffcd00"/><circle cx="32" cy="32" fill="#a7a9ac" r="15"/><circle cx="32" cy="32" fill="#f1f2f2" r="13"/><path d="m35.13 37.96-.009-.009-1.414 1.413 7.071 7.071a4 4 0 0 0 5.657 0 4 4 0 0 0 0-5.657l-7.071-7.071-1.413 1.413.009.01-.009-.01-2.83 2.831z" fill="#005ece"/><path d="m25.52 22.69-1.59-3-5.66-2.83-1.41 1.41 2.83 5.66 3 1.59 12.431 12.431 2.83-2.831z" fill="#5eac24"/><path d="m37.951 35.12.009.01z" fill="#2488ff"/><path d="m47.59 20.65-3.08 3.08-1.39 1.39-3.53-.71-.71-3.53 4.47-4.47a6.991 6.991 0 0 0 -8.94 8.93l-5.95 5.95-.46.46-2.66 2.66a6.991 6.991 0 0 0 -8.93 8.94l3.08-3.08 1.39-1.39 3.53.71.71 3.53-1.39 1.39-3.08 3.08a6.991 6.991 0 0 0 8.94-8.93l5.95-5.95 3.12-3.12a6.991 6.991 0 0 0 8.93-8.94z" fill="#d80027"/></g></svg>