<?xml version="1.0" encoding="iso-8859-1"?>
<!-- Generator: Adobe Illustrator 19.0.0, SVG Export Plug-In . SVG Version: 6.00 Build 0)  -->
<svg version="1.1" id="Layer_1" xmlns="http://www.w3.org/2000/svg" xmlns:xlink="http://www.w3.org/1999/xlink" x="0px" y="0px"
	 viewBox="0 0 491.52 491.52" style="enable-background:new 0 0 491.52 491.52;" xml:space="preserve">
<path style="fill:#64798A;" d="M469.453,0H22.067C9.88,0,0,9.88,0,22.067v447.387c0,12.187,9.88,22.067,22.067,22.067h447.387
	c12.185,0,22.067-9.88,22.067-22.067V22.067C491.52,9.88,481.639,0,469.453,0z"/>
<g>
	<rect x="35.748" y="91.361" style="fill:#EBF0F3;" width="420.045" height="364.39"/>
	<rect x="35.748" y="31.703" style="fill:#EBF0F3;" width="300.339" height="25.405"/>
</g>
<rect x="35.748" y="442.317" style="fill:#D5D6DB;" width="420.045" height="13.435"/>
<circle style="fill:#FCD462;" cx="363.827" cy="44.406" r="12.703"/>
<circle style="fill:#44C4A1;" cx="403.456" cy="44.406" r="12.703"/>
<circle style="fill:#E56353;" cx="443.085" cy="44.406" r="12.703"/>
<circle style="fill:#D15241;" cx="178.335" cy="235.402" r="43.96"/>
<path style="fill:#E56353;" d="M297.849,213.113h-14.936c-2.756-12.994-7.902-25.086-14.907-35.866l10.597-10.597
	c2.095-2.096,2.095-5.494,0-7.59l-23.931-23.93c-2.095-2.096-5.494-2.096-7.589,0l-10.597,10.597
	c-10.779-7.006-22.873-12.15-35.866-14.907v-14.935c0-2.964-2.402-5.367-5.366-5.367h-33.843c-2.963,0-5.367,2.402-5.367,5.367
	v14.935c-12.994,2.757-25.084,7.901-35.866,14.907l-10.596-10.597c-2.097-2.096-5.494-2.096-7.591,0l-23.93,23.93
	c-2.097,2.096-2.097,5.494,0,7.59l10.597,10.597c-7.006,10.779-12.149,22.872-14.906,35.866H58.816
	c-2.963,0-5.367,2.402-5.367,5.367v33.842c0,2.963,2.403,5.367,5.367,5.367h14.936c2.757,12.993,7.9,25.085,14.906,35.866
	l-10.597,10.597c-2.097,2.096-2.097,5.493,0,7.59l23.93,23.93c2.097,2.096,5.494,2.096,7.591,0l10.596-10.597
	c10.781,7.005,22.872,12.15,35.866,14.906v14.936c0,2.964,2.403,5.367,5.367,5.367h33.843c2.963,0,5.366-2.402,5.366-5.367v-14.936
	c12.993-2.756,25.087-7.901,35.866-14.906l10.597,10.597c2.095,2.096,5.494,2.096,7.589,0l23.931-23.93
	c2.095-2.097,2.095-5.494,0-7.59l-10.597-10.597c7.005-10.78,12.15-22.873,14.907-35.866h14.936c2.964,0,5.366-2.403,5.366-5.367
	V218.48C303.215,215.515,300.812,213.113,297.849,213.113z M178.331,322.038c-47.848,0-86.637-38.789-86.637-86.637
	s38.789-86.637,86.637-86.637c47.85,0,86.638,38.789,86.638,86.637S226.181,322.038,178.331,322.038z"/>
<path style="fill:#D15241;" d="M178.331,148.763c-47.848,0-86.637,38.789-86.637,86.637s38.789,86.637,86.637,86.637
	c47.85,0,86.638-38.789,86.638-86.637S226.181,148.763,178.331,148.763z M178.331,311.489c-42.022,0-76.087-34.066-76.087-76.088
	s34.065-76.088,76.087-76.088s76.089,34.066,76.089,76.088S220.354,311.489,178.331,311.489z"/>
<rect x="334.753" y="164.952" transform="matrix(-0.7071 -0.7071 0.7071 -0.7071 399.5114 706.8922)" style="fill:#44C4A1;" width="22.805" height="211.508"/>
<rect x="350.871" y="181.088" transform="matrix(-0.7071 -0.7071 0.7071 -0.7071 415.6078 745.8345)" style="fill:#3EA69B;" width="22.804" height="211.507"/>
<rect x="366.991" y="197.227" transform="matrix(-0.7071 -0.7071 0.7071 -0.7071 431.7151 784.7848)" style="fill:#31978C;" width="22.804" height="211.507"/>
<path style="fill:#64798A;" d="M247.767,408.438l26.36-9.32c-1.221-5.72-4.031-11.17-8.476-15.614
	c-4.444-4.444-9.894-7.254-15.614-8.476l-9.32,26.361C239.17,405.768,243.388,409.987,247.767,408.438z"/>
<path style="fill:#FCD462;" d="M263.32,337.461l-13.282,37.567c3.608,0.77,7.106,2.175,10.314,4.221l19.094-25.664L263.32,337.461z"
	/>
<path style="fill:#DC8744;" d="M311.695,385.835l-16.125-16.125l-25.664,19.093c2.045,3.208,3.451,6.707,4.221,10.314
	L311.695,385.835z"/>
<path style="fill:#F6C358;" d="M279.445,353.585l-19.094,25.664c1.879,1.198,3.659,2.613,5.3,4.255
	c1.641,1.642,3.057,3.422,4.255,5.3l25.664-19.093L279.445,353.585z"/>
<rect x="399.369" y="209.922" transform="matrix(-0.7071 -0.7071 0.7071 -0.7071 587.6986 674.6581)" style="fill:#FCD462;" width="68.414" height="11.382"/>
<path style="fill:#E56353;" d="M459.347,238.184l-48.375-48.375l31.527-31.527c6.762-6.762,55.136,41.614,48.375,48.375
	L459.347,238.184z"/>
<g>
</g>
<g>
</g>
<g>
</g>
<g>
</g>
<g>
</g>
<g>
</g>
<g>
</g>
<g>
</g>
<g>
</g>
<g>
</g>
<g>
</g>
<g>
</g>
<g>
</g>
<g>
</g>
<g>
</g>
</svg>
