<svg height="490.66667pt" viewBox="0 0 490.66667 490.66667" width="490.66667pt" xmlns="http://www.w3.org/2000/svg"><path d="m480 490.667969h-469.332031c-5.890625 0-10.667969-4.78125-10.667969-10.667969v-469.332031c0-5.890625 4.777344-10.667969 10.667969-10.667969h469.332031c5.886719 0 10.667969 4.777344 10.667969 10.667969v469.332031c0 5.886719-4.78125 10.667969-10.667969 10.667969zm0 0" fill="#e6e6e6"/><path d="m459.59375 469.332031h-428.523438c-5.375 0-9.738281-4.363281-9.738281-9.738281v-428.523438c0-5.375 4.363281-9.738281 9.738281-9.738281h428.523438c5.375 0 9.738281 4.363281 9.738281 9.738281v428.523438c0 5.375-4.363281 9.738281-9.738281 9.738281zm0 0" fill="#ebebeb"/><path d="m490.667969 85.332031h-490.667969v-74.664062c0-5.890625 4.777344-10.667969 10.667969-10.667969h469.332031c5.886719 0 10.667969 4.777344 10.667969 10.667969zm0 0" fill="#67809f"/><path d="m469.332031 85.332031h-448v-53.332031c0-5.886719 4.78125-10.667969 10.667969-10.667969h426.667969c5.886719 0 10.664062 4.78125 10.664062 10.667969zm0 0" fill="#72869f"/><path d="m32 32h21.332031v21.332031h-21.332031zm0 0" fill="#fed96c"/><path d="m74.667969 32h21.332031v21.332031h-21.332031zm0 0" fill="#fa5419"/><path d="m117.332031 32h21.335938v21.332031h-21.335938zm0 0" fill="#fed96c"/><path d="m416 32h42.667969v21.332031h-42.667969zm0 0" fill="#fed96c"/><path d="m373.332031 32h21.335938v21.332031h-21.335938zm0 0" fill="#fa5419"/><path d="m266.667969 128h181.332031c5.886719 0 10.667969 4.777344 10.667969 10.667969v128c0 5.886719-4.78125 10.664062-10.667969 10.664062h-181.332031c-5.890625 0-10.667969-4.777343-10.667969-10.664062v-128c0-5.890625 4.777344-10.667969 10.667969-10.667969zm0 0" fill="#fed96c"/><path d="m285.75 149.332031h143.15625c4.660156 0 8.425781 3.414063 8.425781 7.617188v91.425781c0 4.210938-3.765625 7.625-8.414062 7.625h-143.167969c-4.652344 0-8.417969-3.414062-8.417969-7.617188v-91.421874c0-4.214844 3.765625-7.628907 8.417969-7.628907zm0 0" fill="#fedf84"/><g fill="#dedede"><path d="m245.332031 309.332031h106.667969v21.335938h-106.667969zm0 0"/><path d="m373.332031 309.332031h85.335938v21.335938h-85.335938zm0 0"/><path d="m245.332031 352h64v21.332031h-64zm0 0"/><path d="m330.667969 352h128v21.332031h-128zm0 0"/><path d="m373.332031 416h85.335938v21.332031h-85.335938zm0 0"/><path d="m330.667969 416h21.332031v21.332031h-21.332031zm0 0"/></g><path d="m128 309.332031h21.332031v74.667969h-21.332031zm0 0" fill="#e04b16"/><path d="m149.332031 490.667969h-21.332031c-5.886719 0-10.667969-4.78125-10.667969-10.667969v-96c0-5.886719 4.78125-10.667969 10.667969-10.667969h21.332031c5.890625 0 10.667969 4.78125 10.667969 10.667969v96c0 5.886719-4.777344 10.667969-10.667969 10.667969zm0 0" fill="#fa5419"/><path d="m138.667969 480c-5.890625 0-10.667969-4.777344-10.667969-10.667969v-74.664062c0-5.890625 4.777344-10.667969 10.667969-10.667969 5.886719 0 10.664062 4.777344 10.664062 10.667969v74.664062c0 5.890625-4.777343 10.667969-10.664062 10.667969zm0 0" fill="#fa6632"/><path d="m234.667969 224c0 53.019531-42.980469 96-96 96s-96-42.980469-96-96 42.980469-96 96-96 96 42.980469 96 96zm0 0" fill="#fda83d"/><path d="m213.332031 224c0 41.238281-33.429687 74.667969-74.664062 74.667969-41.238281 0-74.667969-33.429688-74.667969-74.667969s33.429688-74.667969 74.667969-74.667969c41.234375 0 74.664062 33.429688 74.664062 74.667969zm0 0" fill="#fdb151"/></svg>